<?xml version="1.0" encoding="utf-8"?>
<!-- Generator: Adobe Illustrator 25.0.0, SVG Export Plug-In . SVG Version: 6.00 Build 0)  -->
<svg version="1.0" xmlns="http://www.w3.org/2000/svg" xmlns:xlink="http://www.w3.org/1999/xlink" x="0px" y="0px"
	 viewBox="0 0 133.2283478 98.704834" style="enable-background:new 0 0 133.2283478 98.704834;" xml:space="preserve">
<style type="text/css">
	.st0{fill:#FFFFFF;}
	.st1{display:none;}
	.st2{display:inline;opacity:0;fill:#D0D5DE;}
</style>
<g id="Klammer">
	<g>
		<g>
			<polygon class="st0" points="7.26758,17.313303 4.26758,17.313303 4.26758,4.2517796 17.3291035,4.2517796 17.3291035,7.2517796 
				7.26758,7.2517796 			"/>
		</g>
	</g>
</g>
<g id="DE">
	<g>
		<path class="st0" d="M21.0626526,28.3802223v2.6435547h-6.4423819v3.4433594h5.7763662v2.6220703h-5.7763662v3.9980469h6.4423819
			v2.6220703h-9.5527334V28.3802223H21.0626526z"/>
		<path class="st0" d="M31.6407776,32.3567848c-0.6660156-1.0449219-1.4658203-1.5556641-3.0214844-1.5556641
			c-1.3994141,0-2.1542969,0.6445312-2.1542969,1.6884766c0,1.2001953,0.9765625,1.7333984,3.0214844,2.2441406
			c3.1992188,0.7998047,4.6425781,2,4.6425781,4.7099609c0,2.5107422-1.6884766,4.4658203-5.2871094,4.4658203
			c-2.6884766,0-4.5546875-0.7333984-5.9101562-2.5107422l2.3769531-1.6435547
			c0.8222656,1.0214844,1.7558594,1.5322266,3.3330078,1.5322266c1.7773438,0,2.3769531-0.7773438,2.3769531-1.7099609
			c0-1.0664062-0.6435547-1.6669922-3.1318359-2.3105469c-3.0214844-0.8007812-4.5332031-2.2441406-4.5332031-4.7773438
			c0-2.421875,1.5996094-4.3095703,5.2441406-4.3095703c2.4433594,0,4.2871094,0.8212891,5.3759766,2.5107422L31.6407776,32.3567848
			z"/>
		<path class="st0" d="M44.8634338,32.3567848c-0.6660156-1.0449219-1.4658203-1.5556641-3.0214844-1.5556641
			c-1.3994141,0-2.1542969,0.6445312-2.1542969,1.6884766c0,1.2001953,0.9765625,1.7333984,3.0214844,2.2441406
			c3.1992188,0.7998047,4.6425781,2,4.6425781,4.7099609c0,2.5107422-1.6884766,4.4658203-5.2871094,4.4658203
			c-2.6884766,0-4.5546875-0.7333984-5.9101562-2.5107422l2.3769531-1.6435547
			c0.8222656,1.0214844,1.7558594,1.5322266,3.3330078,1.5322266c1.7773438,0,2.3769531-0.7773438,2.3769531-1.7099609
			c0-1.0664062-0.6435547-1.6669922-3.1318359-2.3105469c-3.0214844-0.8007812-4.5332031-2.2441406-4.5332031-4.7773438
			c0-2.421875,1.5996094-4.3095703,5.2441406-4.3095703c2.4433594,0,4.2871094,0.8212891,5.3759766,2.5107422L44.8634338,32.3567848
			z"/>
		<path class="st0" d="M53.2208557,41.0872536h6.4433594v2.6220703h-9.5537109V28.3802223h3.1103516V41.0872536z"/>
		<path class="st0" d="M65.0880432,43.7093239h-3.1113281V28.3802223h3.1113281V43.7093239z"/>
		<path class="st0" d="M80.3077698,28.3802223v15.3291016H77.709137l-5.9765625-9.4863281v9.4863281h-2.9550781V28.3802223
			h2.5771484l5.9990234,9.6191406v-9.6191406H80.3077698z"/>
		<path class="st0" d="M94.8419495,35.7337379v1.3994141c0,4.6875-2.1777344,6.7763672-5.6435547,6.7763672
			c-3.4433594,0-5.8652344-2.0888672-5.8652344-6.7763672v-1.9550781c0-4.9541016,2.421875-6.9980469,5.8652344-6.9980469
			c3.2216797,0,5.1542969,1.8212891,5.6210938,4.9541016h-2.9775391c-0.265625-1.3994141-1.0878906-2.3330078-2.6435547-2.3330078
			c-1.7998047,0-2.7548828,1.2216797-2.7548828,4.1552734v2.1767578c0,2.9326172,0.9550781,4.1542969,2.7548828,4.1542969
			c1.7548828,0,2.4658203-1.0888672,2.6435547-2.9326172h-2.5761719v-2.6210938H94.8419495z"/>
		<path class="st0" d="M107.3985901,28.3802223v2.6435547h-6.4433594v3.4433594h5.7763672v2.6220703h-5.7763672v3.9980469h6.4433594
			v2.6220703h-9.5537109V28.3802223H107.3985901z"/>
		<path class="st0" d="M121.530426,28.3802223v15.3291016h-2.5986328l-5.9765625-9.4863281v9.4863281h-2.9550781V28.3802223
			h2.5771484l5.9990234,9.6191406v-9.6191406H121.530426z"/>
	</g>
	<g>
		<polygon class="st0" points="18.8373108,17.1084518 12.5804758,17.1084518 12.5804758,11.5283737 11.5189524,11.5283737 
			11.5189524,24.1523972 12.5804758,24.1523972 12.5804758,18.0967331 18.8373108,18.0967331 18.8373108,24.1523972 
			19.8978577,24.1523972 19.8978577,11.5283737 18.8373108,11.5283737 		"/>
		<path class="st0" d="M27.1858711,11.4189987c-2.7070312,0-4.4824219,1.7011719-4.4824219,5.671875v1.5
			c0,3.9882812,1.7753906,5.6708984,4.4824219,5.6708984c2.7080078,0,4.4824219-1.6826172,4.4824219-5.6708984v-1.5
			C31.668293,13.1201706,29.8938789,11.4189987,27.1858711,11.4189987z M30.6077461,18.5908737
			c0,3.4208984-1.3544922,4.6835938-3.421875,4.6835938s-3.4208984-1.2626953-3.4208984-4.6835938v-1.5
			c0-3.4033203,1.3535156-4.6835938,3.4208984-4.6835938s3.421875,1.2802734,3.421875,4.6835938V18.5908737z"/>
		<path class="st0" d="M38.9563065,12.40728c1.7197266,0,2.9824219,0.8046875,3.4033203,2.9453125h1.0429688
			c-0.4023438-2.7626953-2.1953125-3.9335938-4.4462891-3.9335938c-2.7441406,0-4.4824219,1.5917969-4.4824219,5.671875v1.5
			c0,4.0800781,1.7382812,5.6708984,4.4824219,5.6708984c2.1591797,0,4.0253906-1.1337891,4.4277344-3.9697266h-1.0244141
			c-0.4023438,2.0126953-1.5732422,2.9824219-3.4033203,2.9824219c-2.140625,0-3.4208984-1.2255859-3.4208984-4.6835938v-1.5
			C35.535408,13.650444,36.7981033,12.40728,38.9563065,12.40728z"/>
		<polygon class="st0" points="53.5265465,17.1084518 47.2697105,17.1084518 47.2697105,11.5283737 46.2081871,11.5283737 
			46.2081871,24.1523972 47.2697105,24.1523972 47.2697105,18.0967331 53.5265465,18.0967331 53.5265465,24.1523972 
			54.5870934,24.1523972 54.5870934,11.5283737 53.5265465,11.5283737 		"/>
		<path class="st0" d="M62.0214119,17.3467331c-1.8300781-0.4023438-3.2753906-0.8603516-3.2753906-2.6708984
			c0-1.5556641,1.1533203-2.2685547,2.890625-2.2685547c1.7382812,0,2.6162071,0.7128906,3.2753868,1.6826172l0.8417969-0.6035156
			c-0.8789062-1.390625-2.1230431-2.0673828-4.0800743-2.0673828c-2.8359375,0-3.9882812,1.4814453-3.9882812,3.2568359
			c0,2.25,1.609375,3.1650391,3.9697266,3.6220703c2.3789024,0.4570312,3.2568321,1.1894531,3.2568321,2.7080078
			c0,1.2255859-0.8417969,2.2685547-3.0917931,2.2685547c-1.8847656,0-2.7626953-0.6953125-3.5498047-1.6835938l-0.859375,0.6035156
			c0.9326172,1.3720703,2.3964844,2.0673828,4.4091797,2.0673828c3.0185509,0,4.1523399-1.6826172,4.1523399-3.2929688
			C65.97258,18.5908737,64.3993378,17.8584518,62.0214119,17.3467331z"/>
		<path class="st0" d="M72.7635956,12.40728c1.7197266,0,2.9824219,0.8046875,3.4033203,2.9453125h1.0429688
			c-0.4023438-2.7626953-2.1953125-3.9335938-4.4462891-3.9335938c-2.7441406,0-4.4824219,1.5917969-4.4824219,5.671875v1.5
			c0,4.0800781,1.7382812,5.6708984,4.4824219,5.6708984c2.1591797,0,4.0253906-1.1337891,4.4277344-3.9697266h-1.0244141
			c-0.4023438,2.0126953-1.5732422,2.9824219-3.4033203,2.9824219c-2.140625,0-3.4208984-1.2255859-3.4208984-4.6835938v-1.5
			C69.3426971,13.650444,70.6053925,12.40728,72.7635956,12.40728z"/>
		<polygon class="st0" points="87.2206268,17.1084518 80.9637909,17.1084518 80.9637909,11.5283737 79.9022675,11.5283737 
			79.9022675,24.1523972 80.9637909,24.1523972 80.9637909,18.0967331 87.2206268,18.0967331 87.2206268,24.1523972 
			88.2811737,24.1523972 88.2811737,11.5283737 87.2206268,11.5283737 		"/>
		<path class="st0" d="M99.84758,18.9932175c0,2.9267578-1.2070312,4.28125-3.4208984,4.28125
			s-3.4208984-1.3544922-3.4208984-4.28125v-7.4648438h-1.0615234v7.4648438c0,3.7138672,1.7382812,5.2685547,4.4824219,5.2685547
			s4.4824219-1.5546875,4.4824219-5.2685547v-7.4648438H99.84758V18.9932175z"/>
		<polygon class="st0" points="105.4203186,11.5283737 104.3587952,11.5283737 104.3587952,24.1523972 111.7865295,24.1523972 
			111.7865295,23.1641159 105.4203186,23.1641159 		"/>
		<polygon class="st0" points="121.513588,12.516655 121.513588,11.5283737 114.0858536,11.5283737 114.0858536,24.1523972 
			121.513588,24.1523972 121.513588,23.1641159 115.147377,23.1641159 115.147377,18.1152878 120.9647598,18.1152878 
			120.9647598,17.1270065 115.147377,17.1270065 115.147377,12.516655 		"/>
	</g>
	<g>
		<path class="st0" d="M10.8240805,65.0116501l2.0878906-6.0009766h1.1650391l2.0878897,6.0009766h-1.2958975l-0.3652344-1.1396484
			h-2.0097656l-0.3652344,1.1396484H10.8240805z M12.816268,62.8456345h1.3564453l-0.6777344-2.1132812L12.816268,62.8456345z"/>
		<path class="st0" d="M16.713728,60.6630173h1.0869141v0.3652344c0.1660156-0.2177734,0.5136719-0.4433594,1.0009766-0.4433594
			c0.8779297,0,1.5917969,0.4169922,1.5917969,1.7041016v2.7226562h-1.1054688V62.462822
			c0-0.6777344-0.2431641-0.921875-0.6953125-0.921875c-0.5126953,0-0.765625,0.3398438-0.765625,0.9140625v2.5566406H16.713728
			V60.6630173z"/>
		<path class="st0" d="M23.916853,60.6630173h1.1044922v4.2617188c0,1.4521484-0.8173828,1.7919922-1.9130859,1.7919922
			c-0.8085938,0-1.3222656-0.1914062-1.7050781-0.7832031l0.7480469-0.5390625
			c0.1914062,0.2607422,0.4443359,0.3916016,0.8525391,0.3916016c0.6611328,0,0.9130859-0.1914062,0.9130859-0.8613281v-0.1396484
			c-0.234375,0.2001953-0.5390625,0.3046875-0.9306641,0.3046875c-1.1386719,0-1.7216797-0.8085938-1.7216797-1.9658203v-0.5908203
			c0-1.2705078,0.6865234-1.9482422,1.7216797-1.9482422c0.3916016,0,0.6962891,0.1044922,0.9306641,0.3037109V60.6630173z
			 M23.916853,63.150322v-0.5478516c0-0.6962891-0.2255859-1.078125-0.7734375-1.078125s-0.7744141,0.3818359-0.7744141,1.078125
			v0.4521484c0,0.6259766,0.1738281,1.0957031,0.7744141,1.0957031C23.7342358,64.150322,23.916853,63.7245407,23.916853,63.150322z
			"/>
		<path class="st0" d="M29.4148998,64.3505173c-0.3046875,0.5302734-0.8085938,0.7392578-1.5917969,0.7392578
			c-1.3046875,0-1.9306641-0.84375-1.9306641-1.9658203v-0.5908203c0-1.3134766,0.6611328-1.9482422,1.7919922-1.9482422
			c1.2255859,0,1.7910156,0.7128906,1.7910156,2.0351562v0.4951172h-2.4785156
			c0.0087891,0.6005859,0.2001953,1.0351562,0.8173828,1.0351562c0.4609375,0,0.609375-0.1386719,0.7744141-0.3740234
			L29.4148998,64.3505173z M26.9969311,62.3241501h1.3652344c-0.0253906-0.5654297-0.2519531-0.7998047-0.6689453-0.7998047
			C27.2488842,61.5243454,27.0408764,61.8280563,26.9969311,62.3241501z"/>
		<path class="st0" d="M32.0945892,65.0116501h-0.9042988l-1.2001953-4.3486328h1.1474609l0.6181641,2.4873047l0.8779316-2.4873047
			h0.8173828l0.9394531,2.4960938l0.6181641-2.4960938h1.15625l-1.2089844,4.3486328h-0.8955078l-0.9833984-2.7226562
			L32.0945892,65.0116501z"/>
		<path class="st0" d="M38.1590424,62.4022751h0.8613281V62.150322c0-0.4873047-0.1474609-0.6435547-0.7744141-0.6435547
			c-0.4257812,0-0.6347656,0.0605469-0.8173828,0.3476562L36.646347,61.306572
			c0.3212891-0.5302734,0.8085938-0.7216797,1.7041016-0.7216797c1.1220703,0,1.7568359,0.3300781,1.7568359,1.5742188v2.8525391
			h-1.0869141v-0.3828125c-0.1738281,0.2958984-0.4345703,0.4609375-0.9394531,0.4609375
			c-0.9042969,0-1.5302734-0.4785156-1.5302734-1.3652344C36.5506439,62.8026657,37.2459564,62.4022751,38.1590424,62.4022751z
			 M39.0203705,63.2196579h-0.7304688c-0.4521484,0-0.6523438,0.1484375-0.6523438,0.4873047
			c0,0.3310547,0.2519531,0.4873047,0.6347656,0.4873047c0.5048828,0,0.7480469-0.2177734,0.7480469-0.8085938V63.2196579z"/>
		<path class="st0" d="M41.1258392,60.6630173h1.0869141v0.3652344c0.1660156-0.2177734,0.5136719-0.4433594,1.0009766-0.4433594
			c0.8779297,0,1.5917969,0.4169922,1.5917969,1.7041016v2.7226562H43.700058V62.462822
			c0-0.6777344-0.2431641-0.921875-0.6953125-0.921875c-0.5126953,0-0.765625,0.3398438-0.765625,0.9140625v2.5566406h-1.1132812
			V60.6630173z"/>
		<path class="st0" d="M48.3279877,59.0106735h1.1044922v6.0009766h-1.1044922V64.759697
			c-0.2255859,0.2080078-0.5214844,0.3300781-0.9306641,0.3300781c-1.1386719,0-1.7216797-0.8085938-1.7216797-1.9658203v-0.5908203
			c0-1.2705078,0.6875-1.9482422,1.7216797-1.9482422c0.3740234,0,0.6875,0.0957031,0.9306641,0.3037109V59.0106735z
			 M48.3279877,63.0546188v-0.5478516c0-0.6347656-0.2519531-0.9824219-0.7734375-0.9824219
			c-0.5478516,0-0.7744141,0.3818359-0.7744141,1.078125v0.4521484c0,0.6259766,0.1738281,1.0957031,0.7744141,1.0957031
			C48.1805267,64.150322,48.3279877,63.6805954,48.3279877,63.0546188z"/>
		<path class="st0" d="M50.1395111,60.6630173h0.5566406V59.705986h1.1044922v0.9570312h0.8525391v0.9394531h-0.8525391v1.8173828
			c0,0.4345703,0.0869141,0.6181641,0.4951172,0.6181641h0.3574219v0.9736328h-0.4697266
			c-1.0527344,0-1.4873047-0.2958984-1.4873047-1.4179688v-1.9912109h-0.5566406V60.6630173z"/>
		<path class="st0" d="M56.8367767,64.3505173c-0.3046875,0.5302734-0.8085938,0.7392578-1.5917969,0.7392578
			c-1.3046875,0-1.9306641-0.84375-1.9306641-1.9658203v-0.5908203c0-1.3134766,0.6611328-1.9482422,1.7919922-1.9482422
			c1.2255859,0,1.7910156,0.7128906,1.7910156,2.0351562v0.4951172H54.418808
			c0.0087891,0.6005859,0.2001953,1.0351562,0.8173828,1.0351562c0.4609375,0,0.609375-0.1386719,0.7744141-0.3740234
			L56.8367767,64.3505173z M54.418808,62.3241501h1.3652344c-0.0253906-0.5654297-0.2519531-0.7998047-0.6689453-0.7998047
			C54.6707611,61.5243454,54.4627533,61.8280563,54.418808,62.3241501z"/>
		<path class="st0" d="M64.7967377,59.0106735v6.0009766h-1.0175781l-2.3398438-3.7138672v3.7138672h-1.15625v-6.0009766h1.0087891
			l2.3476562,3.765625v-3.765625H64.7967377z"/>
		<path class="st0" d="M67.3641205,62.4022751h0.8613281V62.150322c0-0.4873047-0.1474609-0.6435547-0.7744141-0.6435547
			c-0.4257812,0-0.6347656,0.0605469-0.8173828,0.3476562l-0.7822266-0.5478516
			c0.3212891-0.5302734,0.8085938-0.7216797,1.7041016-0.7216797c1.1220703,0,1.7568359,0.3300781,1.7568359,1.5742188v2.8525391
			h-1.0869141v-0.3828125c-0.1738281,0.2958984-0.4345703,0.4609375-0.9394531,0.4609375
			c-0.9042969,0-1.5302734-0.4785156-1.5302734-1.3652344C65.755722,62.8026657,66.4510345,62.4022751,67.3641205,62.4022751z
			 M68.2254486,63.2196579h-0.7304688c-0.4521484,0-0.6523438,0.1484375-0.6523438,0.4873047
			c0,0.3310547,0.2519531,0.4873047,0.6347656,0.4873047c0.5048828,0,0.7480469-0.2177734,0.7480469-0.8085938V63.2196579z"/>
		<path class="st0" d="M70.0096283,60.6630173h0.5566406V59.705986h1.1044922v0.9570312h0.8525391v0.9394531h-0.8525391v1.8173828
			c0,0.4345703,0.0869141,0.6181641,0.4951172,0.6181641h0.3574219v0.9736328h-0.4697266
			c-1.0527344,0-1.4873047-0.2958984-1.4873047-1.4179688v-1.9912109h-0.5566406V60.6630173z"/>
		<path class="st0" d="M77.021347,65.0116501h-1.0878906v-0.3652344c-0.1826172,0.2958984-0.4169922,0.4433594-0.9912109,0.4433594
			c-0.8789062,0-1.6005859-0.4345703-1.6005859-1.7128906v-2.7138672h1.1132812v2.5478516
			c0,0.6875,0.2441406,0.921875,0.7050781,0.921875c0.5126953,0,0.7558594-0.3125,0.7558594-0.9130859v-2.5566406h1.1054688
			V65.0116501z"/>
		<path class="st0" d="M80.4051361,61.8720016c-0.1132812-0.1650391-0.2695312-0.3310547-0.5478516-0.3310547
			c-0.4179688,0-0.6962891,0.3046875-0.6962891,0.9140625v2.5566406h-1.1132812v-4.3486328h1.0869141v0.3652344
			c0.1484375-0.2177734,0.4355469-0.4433594,0.9482422-0.4433594c0.5224609,0,0.9130859,0.2255859,1.1748047,0.6777344
			L80.4051361,61.8720016z"/>
		<path class="st0" d="M81.5623627,62.0106735h2.2529297v0.9746094h-2.2529297V62.0106735z"/>
		<path class="st0" d="M12.9900961,76.0116501h-0.9042969l-1.2001953-4.3486328h1.1474609l0.6181641,2.4873047l0.8779297-2.4873047
			h0.8173828l0.9394531,2.4960938l0.6181641-2.4960938h1.156249l-1.2089834,4.3486328h-0.8955078l-0.9833984-2.7226562
			L12.9900961,76.0116501z"/>
		<path class="st0" d="M17.7059155,70.0106735h1.2001953v1.078125h-1.2001953V70.0106735z M17.7498608,71.6630173h1.1132812
			v4.3486328h-1.1132812V71.6630173z"/>
		<path class="st0" d="M22.3514233,72.8895798c-0.1914062-0.2265625-0.3828125-0.3486328-0.8525391-0.3486328
			c-0.2871094,0-0.5478516,0.0869141-0.5478516,0.3398438c0,0.2607422,0.234375,0.3564453,0.6953125,0.4257812
			c1.0703125,0.1650391,1.609375,0.5742188,1.609375,1.4355469c0,0.8349609-0.5830078,1.3476562-1.7050781,1.3476562
			c-0.8867188,0-1.4257812-0.2177734-1.7998047-0.7216797l0.8515625-0.609375
			c0.1748047,0.2353516,0.3916016,0.3740234,0.9306641,0.3740234c0.3828125,0,0.6181641-0.1298828,0.6181641-0.3564453
			c0-0.2695312-0.1914062-0.3564453-0.7392578-0.4433594c-0.9052734-0.1474609-1.5654297-0.5302734-1.5654297-1.4091797
			c0-0.8261719,0.5908203-1.3388672,1.6777344-1.3388672c0.7138672,0,1.3046875,0.1650391,1.6445312,0.7216797
			L22.3514233,72.8895798z"/>
		<path class="st0" d="M26.4754467,72.8895798c-0.1914062-0.2265625-0.3828125-0.3486328-0.8525391-0.3486328
			c-0.2871094,0-0.5478516,0.0869141-0.5478516,0.3398438c0,0.2607422,0.234375,0.3564453,0.6953125,0.4257812
			c1.0703125,0.1650391,1.609375,0.5742188,1.609375,1.4355469c0,0.8349609-0.5830078,1.3476562-1.7050781,1.3476562
			c-0.8867188,0-1.4257812-0.2177734-1.7998047-0.7216797l0.8515625-0.609375
			c0.1738281,0.2353516,0.3916016,0.3740234,0.9306641,0.3740234c0.3828125,0,0.6181641-0.1298828,0.6181641-0.3564453
			c0-0.2695312-0.1914062-0.3564453-0.7392578-0.4433594c-0.9052734-0.1474609-1.5654297-0.5302734-1.5654297-1.4091797
			c0-0.8261719,0.5908203-1.3388672,1.6777344-1.3388672c0.7138672,0,1.3046875,0.1650391,1.6445312,0.7216797
			L26.4754467,72.8895798z"/>
		<path class="st0" d="M31.5809155,75.3505173c-0.3046875,0.5302734-0.8085938,0.7392578-1.5917969,0.7392578
			c-1.3046875,0-1.9306641-0.84375-1.9306641-1.9658203v-0.5908203c0-1.3134766,0.6611328-1.9482422,1.7919922-1.9482422
			c1.2255859,0,1.7910156,0.7128906,1.7910156,2.0351562v0.4951172h-2.4785156
			c0.0087891,0.6005859,0.2001953,1.0351562,0.8173828,1.0351562c0.4609375,0,0.609375-0.1386719,0.7744141-0.3740234
			L31.5809155,75.3505173z M29.1629467,73.3241501h1.3652344c-0.0253906-0.5654297-0.2519531-0.7998047-0.6689453-0.7998047
			C29.4148998,72.5243454,29.206892,72.8280563,29.1629467,73.3241501z"/>
		<path class="st0" d="M32.5301361,71.6630173h1.0869141v0.3652344c0.1660156-0.2177734,0.5136719-0.4433594,1.0009766-0.4433594
			c0.8779297,0,1.5917969,0.4169922,1.5917969,1.7041016v2.7226562h-1.1054688V73.462822
			c0-0.6777344-0.2431641-0.921875-0.6953125-0.921875c-0.5126953,0-0.765625,0.3398438-0.765625,0.9140625v2.5566406h-1.1132812
			V71.6630173z"/>
		<path class="st0" d="M39.5770111,72.8895798c-0.1914062-0.2265625-0.3828125-0.3486328-0.8525391-0.3486328
			c-0.2871094,0-0.5478516,0.0869141-0.5478516,0.3398438c0,0.2607422,0.234375,0.3564453,0.6953125,0.4257812
			c1.0703125,0.1650391,1.609375,0.5742188,1.609375,1.4355469c0,0.8349609-0.5830078,1.3476562-1.7050781,1.3476562
			c-0.8867188,0-1.4257812-0.2177734-1.7998047-0.7216797l0.8515625-0.609375
			c0.1738281,0.2353516,0.3916016,0.3740234,0.9306641,0.3740234c0.3828125,0,0.6181641-0.1298828,0.6181641-0.3564453
			c0-0.2695312-0.1914062-0.3564453-0.7392578-0.4433594c-0.9052734-0.1474609-1.5654297-0.5302734-1.5654297-1.4091797
			c0-0.8261719,0.5908203-1.3388672,1.6777344-1.3388672c0.7138672,0,1.3046875,0.1650391,1.6445312,0.7216797
			L39.5770111,72.8895798z"/>
		<path class="st0" d="M44.6834564,75.3505173c-0.3046875,0.5136719-0.7998047,0.7392578-1.5830078,0.7392578
			c-1.2441406,0-1.9394531-0.7822266-1.9394531-1.9658203v-0.5908203c0-1.2705078,0.7041016-1.9482422,2-1.9482422
			c0.6699219,0,1.2177734,0.2431641,1.5224609,0.7216797l-0.8349609,0.5830078
			c-0.1474609-0.2089844-0.3652344-0.3652344-0.7128906-0.3652344c-0.6269531,0-0.8701172,0.3818359-0.8701172,1.078125v0.4521484
			c0,0.6259766,0.1650391,1.0957031,0.8701172,1.0957031c0.3300781,0,0.5654297-0.1123047,0.7216797-0.3740234
			L44.6834564,75.3505173z"/>
		<path class="st0" d="M45.2840424,70.0106735h1.1132812v1.9912109c0.1650391-0.2167969,0.4697266-0.4169922,0.9746094-0.4169922
			c0.8779297,0,1.5917969,0.4169922,1.5917969,1.7041016v2.7226562h-1.1054688V73.462822
			c0-0.6777344-0.2431641-0.921875-0.6953125-0.921875c-0.5126953,0-0.765625,0.3398438-0.765625,0.9140625v2.5566406h-1.1132812
			V70.0106735z"/>
		<path class="st0" d="M51.3387299,73.4022751h0.8613281V73.150322c0-0.4873047-0.1474609-0.6435547-0.7744141-0.6435547
			c-0.4257812,0-0.6347656,0.0605469-0.8173828,0.3476562l-0.7822266-0.5478516
			c0.3212891-0.5302734,0.8085938-0.7216797,1.7041016-0.7216797c1.1220703,0,1.7568359,0.3300781,1.7568359,1.5742188v2.8525391
			H52.200058v-0.3828125c-0.1738281,0.2958984-0.4345703,0.4609375-0.9394531,0.4609375
			c-0.9042969,0-1.5302734-0.4785156-1.5302734-1.3652344C49.7303314,73.8026657,50.4256439,73.4022751,51.3387299,73.4022751z
			 M52.200058,74.2196579h-0.7304688c-0.4521484,0-0.6523438,0.1484375-0.6523438,0.4873047
			c0,0.3310547,0.2519531,0.4873047,0.6347656,0.4873047c0.5048828,0,0.7480469-0.2177734,0.7480469-0.8085938V74.2196579z"/>
		<path class="st0" d="M54.4979095,71.6630173v-0.2353516c0-1.1220703,0.4345703-1.4169922,1.4873047-1.4169922h0.3212891v0.9736328
			h-0.2089844c-0.4082031,0-0.4951172,0.1826172-0.4951172,0.6181641v0.0605469h0.7041016v0.9394531h-0.7041016v3.4091797
			h-1.1044922v-3.4091797h-0.5566406v-0.9394531H54.4979095z"/>
		<path class="st0" d="M56.646347,71.6630173h0.5566406V70.705986h1.1044922v0.9570312h0.8525391v0.9394531h-0.8525391v1.8173828
			c0,0.4345703,0.0869141,0.6181641,0.4951172,0.6181641h0.3574219v0.9736328h-0.4697266
			c-1.0527344,0-1.4873047-0.2958984-1.4873047-1.4179688v-1.9912109H56.646347V71.6630173z"/>
		<path class="st0" d="M63.3006439,75.3505173c-0.3046875,0.5302734-0.8085938,0.7392578-1.5917969,0.7392578
			c-1.3046875,0-1.9306641-0.84375-1.9306641-1.9658203v-0.5908203c0-1.3134766,0.6611328-1.9482422,1.7919922-1.9482422
			c1.2255859,0,1.7910156,0.7128906,1.7910156,2.0351562v0.4951172h-2.4785156
			c0.0087891,0.6005859,0.2001953,1.0351562,0.8173828,1.0351562c0.4609375,0,0.609375-0.1386719,0.7744141-0.3740234
			L63.3006439,75.3505173z M60.8826752,73.3241501h1.3652344c-0.0253906-0.5654297-0.2519531-0.7998047-0.6699219-0.7998047
			C61.1346283,72.5243454,60.9266205,72.8280563,60.8826752,73.3241501z"/>
		<path class="st0" d="M64.2498627,71.6630173h1.0878906v0.3652344c0.1650391-0.2177734,0.5126953-0.4433594,1-0.4433594
			c0.8779297,0,1.5917969,0.4169922,1.5917969,1.7041016v2.7226562h-1.1054688V73.462822
			c0-0.6777344-0.2431641-0.921875-0.6953125-0.921875c-0.5136719,0-0.765625,0.3398438-0.765625,0.9140625v2.5566406h-1.1132812
			V71.6630173z"/>
		<path class="st0" d="M70.1746674,76.4120407l-1.1835938,1.0087891v-2.765625h1.1835938V76.4120407z"/>
		<path class="st0" d="M77.3768158,70.0106735v1.0351562h-2.5214844v1.3476562h2.2607422v1.0263672h-2.2607422v1.5654297h2.5214844
			v1.0263672H73.637558v-6.0009766H77.3768158z"/>
		<path class="st0" d="M78.1609955,71.6630173h1.0869141v0.3652344c0.1660156-0.2177734,0.5136719-0.4433594,1.0009766-0.4433594
			c0.8779297,0,1.5917969,0.4169922,1.5917969,1.7041016v2.7226562h-1.1054688V73.462822
			c0-0.6777344-0.2431641-0.921875-0.6953125-0.921875c-0.5126953,0-0.765625,0.3398438-0.765625,0.9140625v2.5566406h-1.1132812
			V71.6630173z"/>
		<path class="st0" d="M86.1902924,75.3505173c-0.3046875,0.5302734-0.8085938,0.7392578-1.5917969,0.7392578
			c-1.3046875,0-1.9306641-0.84375-1.9306641-1.9658203v-0.5908203c0-1.3134766,0.6611328-1.9482422,1.7919922-1.9482422
			c1.2255859,0,1.7910156,0.7128906,1.7910156,2.0351562v0.4951172h-2.4785156
			c0.0087891,0.6005859,0.2001953,1.0351562,0.8173828,1.0351562c0.4609375,0,0.609375-0.1386719,0.7744141-0.3740234
			L86.1902924,75.3505173z M83.7723236,73.3241501h1.3652344c-0.0253906-0.5654297-0.2519531-0.7998047-0.6689453-0.7998047
			C84.0242767,72.5243454,83.8162689,72.8280563,83.7723236,73.3241501z"/>
		<path class="st0" d="M89.4959564,72.8720016c-0.1132812-0.1650391-0.2695312-0.3310547-0.5478516-0.3310547
			c-0.4179688,0-0.6962891,0.3046875-0.6962891,0.9140625v2.5566406h-1.1132812v-4.3486328h1.0878906v0.3652344
			c0.1474609-0.2177734,0.4345703-0.4433594,0.9472656-0.4433594c0.5224609,0,0.9130859,0.2255859,1.1748047,0.6777344
			L89.4959564,72.8720016z"/>
		<path class="st0" d="M93.2889252,71.6630173h1.1044922v4.2617188c0,1.4521484-0.8173828,1.7919922-1.9130859,1.7919922
			c-0.8085938,0-1.3222656-0.1914062-1.7050781-0.7832031l0.7480469-0.5390625
			c0.1914062,0.2607422,0.4443359,0.3916016,0.8525391,0.3916016c0.6611328,0,0.9130859-0.1914062,0.9130859-0.8613281v-0.1396484
			c-0.234375,0.2001953-0.5390625,0.3046875-0.9306641,0.3046875c-1.1386719,0-1.7216797-0.8085938-1.7216797-1.9658203v-0.5908203
			c0-1.2705078,0.6875-1.9482422,1.7216797-1.9482422c0.3916016,0,0.6962891,0.1044922,0.9306641,0.3037109V71.6630173z
			 M93.2889252,74.150322v-0.5478516c0-0.6962891-0.2255859-1.078125-0.7734375-1.078125s-0.7744141,0.3818359-0.7744141,1.078125
			v0.4521484c0,0.6259766,0.1738281,1.0957031,0.7744141,1.0957031C93.106308,75.150322,93.2889252,74.7245407,93.2889252,74.150322
			z"/>
		<path class="st0" d="M95.4647064,70.0106735h1.2001953v1.078125h-1.2001953V70.0106735z M95.5086517,71.6630173h1.1132812
			v4.3486328h-1.1132812V71.6630173z"/>
		<path class="st0" d="M101.0926361,75.3505173c-0.3046875,0.5302734-0.8085938,0.7392578-1.5917969,0.7392578
			c-1.3046875,0-1.9306641-0.84375-1.9306641-1.9658203v-0.5908203c0-1.3134766,0.6611328-1.9482422,1.7919922-1.9482422
			c1.2255859,0,1.7910156,0.7128906,1.7910156,2.0351562v0.4951172h-2.4785156
			c0.0087891,0.6005859,0.2001953,1.0351562,0.8173828,1.0351562c0.4609375,0,0.609375-0.1386719,0.7744141-0.3740234
			L101.0926361,75.3505173z M98.6746674,73.3241501h1.3652344c-0.0253906-0.5654297-0.2519531-0.7998047-0.6689453-0.7998047
			C98.9266205,72.5243454,98.7186127,72.8280563,98.6746674,73.3241501z"/>
		<path class="st0" d="M101.8592377,73.0106735h2.2529297v0.9746094h-2.2529297V73.0106735z"/>
		<path class="st0" d="M14.9822836,87.0116501H13.894393v-0.3652344c-0.1826172,0.2958984-0.4169922,0.4433594-0.9912109,0.4433594
			c-0.8789062,0-1.6005859-0.4345703-1.6005859-1.7128906v-2.7138672h1.1132812v2.5478516
			c0,0.6875,0.2441406,0.921875,0.7050781,0.921875c0.5126953,0,0.7558594-0.3125,0.7558594-0.9130859v-2.5566406h1.1054688
			V87.0116501z"/>
		<path class="st0" d="M15.965682,82.6630173h1.0869131v0.3652344c0.1660156-0.2177734,0.5136719-0.4433594,1.0009766-0.4433594
			c0.8779297,0,1.5917969,0.4169922,1.5917969,1.7041016v2.7226562h-1.1054688V84.462822
			c0-0.6777344-0.2431641-0.921875-0.6953125-0.921875c-0.5126953,0-0.765625,0.3398438-0.765625,0.9140625v2.5566406H15.965682
			V82.6630173z"/>
		<path class="st0" d="M23.1248608,81.0106735h1.1044922v6.0009766h-1.1044922V86.759697
			c-0.2255859,0.2080078-0.5214844,0.3300781-0.9306641,0.3300781c-1.1386719,0-1.7216797-0.8085938-1.7216797-1.9658203v-0.5908203
			c0-1.2705078,0.6875-1.9482422,1.7216797-1.9482422c0.3740234,0,0.6875,0.0957031,0.9306641,0.3037109V81.0106735z
			 M23.1248608,85.0546188v-0.5478516c0-0.6347656-0.2519531-0.9824219-0.7734375-0.9824219
			c-0.5478516,0-0.7744141,0.3818359-0.7744141,1.078125v0.4521484c0,0.6259766,0.1738281,1.0957031,0.7744141,1.0957031
			C22.9773998,86.150322,23.1248608,85.6805954,23.1248608,85.0546188z"/>
		<path class="st0" d="M31.9461498,83.8895798v0.5478516c0,1.8349609-0.8525391,2.6523438-2.2089844,2.6523438
			c-1.3486328,0-2.2958984-0.8173828-2.2958984-2.6523438v-0.765625c0-1.9394531,0.9472656-2.7392578,2.2958984-2.7392578
			c1.2607422,0,2.0175781,0.7128906,2.2001953,1.9394531h-1.1650391c-0.1044922-0.5478516-0.4267578-0.9140625-1.0351562-0.9140625
			c-0.7050781,0-1.0791016,0.4785156-1.0791016,1.6269531v0.8525391c0,1.1474609,0.3740234,1.6259766,1.0791016,1.6259766
			c0.6865234,0,0.9648438-0.4257812,1.0351562-1.1474609h-1.0087891v-1.0263672H31.9461498z"/>
		<path class="st0" d="M36.2527924,86.3505173c-0.3046875,0.5302734-0.8085938,0.7392578-1.5917969,0.7392578
			c-1.3046875,0-1.9306641-0.84375-1.9306641-1.9658203v-0.5908203c0-1.3134766,0.6611328-1.9482422,1.7919922-1.9482422
			c1.2255859,0,1.7910156,0.7128906,1.7910156,2.0351562v0.4951172h-2.4785156
			c0.0087891,0.6005859,0.2001953,1.0351562,0.8173828,1.0351562c0.4609375,0,0.609375-0.1386719,0.7744141-0.3740234
			L36.2527924,86.3505173z M33.8348236,84.3241501h1.3652344c-0.0253906-0.5654297-0.2519531-0.7998047-0.6689453-0.7998047
			C34.0867767,83.5243454,33.8787689,83.8280563,33.8348236,84.3241501z"/>
		<path class="st0" d="M38.2547455,82.9325485c0.234375-0.2519531,0.5654297-0.3476562,0.9394531-0.3476562
			c1.0439453,0,1.7128906,0.6777344,1.7128906,1.9824219v0.5224609c0,1.1914062-0.5654297,2-1.7128906,2
			c-0.4267578,0-0.7304688-0.1132812-0.9394531-0.3388672v0.2607422h-1.0527344v-6.0009766h1.0527344V82.9325485z
			 M39.802597,85.0546188v-0.4521484c0-0.6962891-0.2255859-1.078125-0.7734375-1.078125
			c-0.5488281,0-0.7744141,0.3818359-0.7744141,1.078125v0.4521484c0,0.6259766,0.1914062,1.0957031,0.7744141,1.0957031
			C39.6287689,86.150322,39.802597,85.6805954,39.802597,85.0546188z"/>
		<path class="st0" d="M43.1180267,84.4022751h0.8613281V84.150322c0-0.4873047-0.1474609-0.6435547-0.7744141-0.6435547
			c-0.4257812,0-0.6347656,0.0605469-0.8173828,0.3476562l-0.7822266-0.5478516
			c0.3212891-0.5302734,0.8085938-0.7216797,1.7041016-0.7216797c1.1220703,0,1.7568359,0.3300781,1.7568359,1.5742188v2.8525391
			h-1.0869141v-0.3828125c-0.1738281,0.2958984-0.4345703,0.4609375-0.9394531,0.4609375
			c-0.9042969,0-1.5302734-0.4785156-1.5302734-1.3652344C41.5096283,84.8026657,42.2049408,84.4022751,43.1180267,84.4022751z
			 M41.8836517,81.0106735h1.078125v1.0175781h-1.078125V81.0106735z M43.9793549,85.2196579h-0.7304688
			c-0.4521484,0-0.6523438,0.1484375-0.6523438,0.4873047c0,0.3310547,0.2519531,0.4873047,0.6347656,0.4873047
			c0.5048828,0,0.7480469-0.2177734,0.7480469-0.8085938V85.2196579z M43.6570892,81.0106735h1.0703125v1.0175781h-1.0703125
			V81.0106735z"/>
		<path class="st0" d="M49.7205658,87.0116501h-1.0878906v-0.3652344c-0.1826172,0.2958984-0.4169922,0.4433594-0.9912109,0.4433594
			c-0.8789062,0-1.6005859-0.4345703-1.6005859-1.7128906v-2.7138672h1.1132812v2.5478516
			c0,0.6875,0.2441406,0.921875,0.7050781,0.921875c0.5126953,0,0.7558594-0.3125,0.7558594-0.9130859v-2.5566406h1.1054688
			V87.0116501z"/>
		<path class="st0" d="M53.200058,81.0106735h1.1044922v6.0009766H53.200058V86.759697
			c-0.2255859,0.2080078-0.5214844,0.3300781-0.9306641,0.3300781c-1.1386719,0-1.7216797-0.8085938-1.7216797-1.9658203v-0.5908203
			c0-1.2705078,0.6865234-1.9482422,1.7216797-1.9482422c0.3740234,0,0.6875,0.0957031,0.9306641,0.3037109V81.0106735z
			 M53.200058,85.0546188v-0.5478516c0-0.6347656-0.2519531-0.9824219-0.7734375-0.9824219
			c-0.5478516,0-0.7744141,0.3818359-0.7744141,1.078125v0.4521484c0,0.6259766,0.1738281,1.0957031,0.7744141,1.0957031
			C53.052597,86.150322,53.200058,85.6805954,53.200058,85.0546188z"/>
		<path class="st0" d="M58.6551361,86.3505173c-0.3046875,0.5302734-0.8085938,0.7392578-1.5917969,0.7392578
			c-1.3046875,0-1.9306641-0.84375-1.9306641-1.9658203v-0.5908203c0-1.3134766,0.6611328-1.9482422,1.7919922-1.9482422
			c1.2255859,0,1.7910156,0.7128906,1.7910156,2.0351562v0.4951172h-2.4785156
			c0.0087891,0.6005859,0.2001953,1.0351562,0.8173828,1.0351562c0.4609375,0,0.609375-0.1386719,0.7744141-0.3740234
			L58.6551361,86.3505173z M56.2371674,84.3241501h1.3652344c-0.0253906-0.5654297-0.2519531-0.7998047-0.6689453-0.7998047
			C56.4891205,83.5243454,56.2811127,83.8280563,56.2371674,84.3241501z"/>
		<path class="st0" d="M59.2830658,82.6630173h0.5566406V81.705986h1.1044922v0.9570312h0.8525391v0.9394531h-0.8525391v1.8173828
			c0,0.4345703,0.0869141,0.6181641,0.4951172,0.6181641h0.3574219v0.9736328h-0.4697266
			c-1.0527344,0-1.4873047-0.2958984-1.4873047-1.4179688v-1.9912109h-0.5566406V82.6630173z"/>
		<path class="st0" d="M65.9373627,86.3505173c-0.3046875,0.5302734-0.8085938,0.7392578-1.5917969,0.7392578
			c-1.3046875,0-1.9306641-0.84375-1.9306641-1.9658203v-0.5908203c0-1.3134766,0.6611328-1.9482422,1.7919922-1.9482422
			c1.2255859,0,1.7910156,0.7128906,1.7910156,2.0351562v0.4951172h-2.4785156
			c0.0087891,0.6005859,0.2001953,1.0351562,0.8173828,1.0351562c0.4609375,0,0.609375-0.1386719,0.7744141-0.3740234
			L65.9373627,86.3505173z M63.5193939,84.3241501h1.3652344c-0.0253906-0.5654297-0.2519531-0.7998047-0.6699219-0.7998047
			C63.771347,83.5243454,63.5633392,83.8280563,63.5193939,84.3241501z"/>
		<path class="st0" d="M70.2518158,86.3505173c-0.3046875,0.5136719-0.7998047,0.7392578-1.5830078,0.7392578
			c-1.2441406,0-1.9394531-0.7822266-1.9394531-1.9658203v-0.5908203c0-1.2705078,0.7041016-1.9482422,2-1.9482422
			c0.6699219,0,1.2177734,0.2431641,1.5224609,0.7216797l-0.8349609,0.5830078
			c-0.1474609-0.2089844-0.3652344-0.3652344-0.7128906-0.3652344c-0.6269531,0-0.8701172,0.3818359-0.8701172,1.078125v0.4521484
			c0,0.6259766,0.1650391,1.0957031,0.8701172,1.0957031c0.3300781,0,0.5654297-0.1123047,0.7216797-0.3740234
			L70.2518158,86.3505173z"/>
		<path class="st0" d="M70.8533783,81.0106735h1.1132812v1.9912109c0.1650391-0.2167969,0.4697266-0.4169922,0.9746094-0.4169922
			c0.8779297,0,1.5917969,0.4169922,1.5917969,1.7041016v2.7226562H73.427597V84.462822
			c0-0.6777344-0.2431641-0.921875-0.6953125-0.921875c-0.5136719,0-0.765625,0.3398438-0.765625,0.9140625v2.5566406h-1.1132812
			V81.0106735z"/>
		<path class="st0" d="M75.5164642,82.6630173h1.0869141v0.3652344c0.1660156-0.2177734,0.5136719-0.4433594,1.0009766-0.4433594
			c0.8779297,0,1.5917969,0.4169922,1.5917969,1.7041016v2.7226562H78.090683V84.462822
			c0-0.6777344-0.2431641-0.921875-0.6953125-0.921875c-0.5126953,0-0.765625,0.3398438-0.765625,0.9140625v2.5566406h-1.1132812
			V82.6630173z"/>
		<path class="st0" d="M80.2664642,81.0106735h1.2001953v1.078125h-1.2001953V81.0106735z M80.3104095,82.6630173h1.1132812
			v4.3486328h-1.1132812V82.6630173z"/>
		<path class="st0" d="M86.1815033,82.6630173l-1.5048828,1.8173828l1.7568359,2.53125h-1.3046875l-1.1914062-1.6347656
			l-0.2958984,0.3652344v1.2695312H82.528183v-6.0009766h1.1132812v3.2353516l1.2177734-1.5830078H86.1815033z"/>
	</g>
</g>
<g id="Vermassung" class="st1">
	<path class="st2" d="M11.4340153,43.7142868v2.6435547H4.991632v3.4433594h5.7763677v2.6220703H4.991632v3.9980469h6.4423833
		v2.6220703H1.8812804V43.7142868H11.4340153z"/>
	<rect x="-0.0001587" y="7.2340713" class="st2" width="4.2601218" height="4.2601218"/>
	<rect x="5.98558" y="0.0047675" class="st2" width="4.2601218" height="4.2601218"/>
	<rect x="7.2741766" y="7.2756386" class="st2" width="4.2601218" height="4.2601218"/>
	<rect x="7.2276063" y="24.1586533" class="st2" width="4.2601218" height="4.2601218"/>
</g>
</svg>
